<svg width="98" height="71" viewBox="0 0 98 71" fill="none" xmlns="http://www.w3.org/2000/svg">
<g clip-path="url(#clip0_1_218)">
<path d="M83.4888 34.0726H57.1889V0.907227H19.3924V68.3192H0.363525V70.842H97.5352V68.3192H83.4888V34.0726V34.0726ZM54.6661 67.238H21.9062V3.42099H54.6661V67.229V67.238ZM80.966 67.238H57.5763V36.5864H80.966V67.229V67.238Z" fill="white"/>
<path d="M36.5298 10.4397H28.4389V17.3863H36.5298V10.4397V10.4397ZM35.2684 16.1249H29.6913V11.7011H35.2684V16.1249Z" fill="white"/>
<path d="M48.1436 10.4397H40.0527V17.3863H48.1436V10.4397V10.4397ZM46.8822 16.1249H41.3051V11.7011H46.8822V16.1249Z" fill="white"/>
<path d="M48.1436 19.4675H40.0527V26.4142H48.1436V19.4675ZM46.8822 25.1528H41.3051V20.7289H46.8822V25.1528Z" fill="white"/>
<path d="M48.1436 35.4326H40.0527V42.3702H48.1436V35.4326ZM46.8822 41.1179H41.3051V36.694H46.8822V41.1179V41.1179Z" fill="white"/>
<path d="M48.1436 51.2817H40.0527V58.2194H48.1436V51.2817ZM46.8822 56.967H41.3051V52.5431H46.8822V56.967Z" fill="white"/>
<path d="M36.5298 51.2817H28.4389V58.2194H36.5298V51.2817ZM35.2684 56.967H29.6913V52.5431H35.2684V56.967Z" fill="white"/>
<path d="M68.7943 39.3162H60.7034V46.2628H68.7943V39.3162ZM67.5329 45.0014H61.9558V40.5775H67.5329V45.0014V45.0014Z" fill="white"/>
<path d="M78.9485 50.5249H70.8577V57.4625H78.9485V50.5249ZM77.6872 56.2101H72.11V51.7863H77.6872V56.2101V56.2101Z" fill="white"/>
</g>
<defs>
<clipPath id="clip0_1_218">
<rect width="97.1717" height="69.9258" fill="white" transform="translate(0.363525 0.907227)"/>
</clipPath>
</defs>
</svg>
